<svg width="296" height="78" viewBox="0 0 296 78" fill="none" xmlns="http://www.w3.org/2000/svg">
<rect x="1" y="1" width="294" height="76" fill="#222222"/>
<rect x="1" y="1" width="294" height="76" stroke="#444444" stroke-width="2"/>
<path d="M24.093 38.478C23.968 38.8148 23.968 39.1852 24.093 39.522C25.3105 42.4742 27.3773 44.9984 30.0312 46.7746C32.685 48.5509 35.8066 49.4991 39 49.4991C42.1934 49.4991 45.315 48.5509 47.9688 46.7746C50.6227 44.9984 52.6894 42.4742 53.907 39.522C54.032 39.1852 54.032 38.8148 53.907 38.478C52.6894 35.5258 50.6227 33.0016 47.9688 31.2253C45.315 29.4491 42.1934 28.5009 39 28.5009C35.8066 28.5009 32.685 29.4491 30.0312 31.2253C27.3773 33.0016 25.3105 35.5258 24.093 38.478Z" stroke="white" stroke-width="2" stroke-linecap="round" stroke-linejoin="round"/>
<path d="M39 43.5C41.4853 43.5 43.5 41.4853 43.5 39C43.5 36.5147 41.4853 34.5 39 34.5C36.5147 34.5 34.5 36.5147 34.5 39C34.5 41.4853 36.5147 43.5 39 43.5Z" stroke="white" stroke-width="2" stroke-linecap="round" stroke-linejoin="round"/>
<text x="64" y="40" dominant-baseline="central" font-family="Arial, Helvetica, sans-serif" font-size="24" font-weight="600" fill="#EDEDED">Open preview</text>
</svg>
