<?xml version="1.0" encoding="UTF-8" standalone="no"?>
<!DOCTYPE svg PUBLIC "-//W3C//DTD SVG 1.1//EN" "http://www.w3.org/Graphics/SVG/1.1/DTD/svg11.dtd">
<svg width="100%" height="100%" viewBox="0 0 268 53" version="1.1" xmlns="http://www.w3.org/2000/svg" xmlns:xlink="http://www.w3.org/1999/xlink" xml:space="preserve" xmlns:serif="http://www.serif.com/" style="fill-rule:evenodd;clip-rule:evenodd;stroke-linejoin:round;stroke-miterlimit:2;">
    <g transform="matrix(1,0,0,1,-155.162389,-1350.828532)">
        <g transform="matrix(0.054329,0,0,0.054329,288.86572,1376.879221)">
            <g transform="matrix(1,0,0,1,-2461,-479.5)">
                <g transform="matrix(4.166667,0,0,4.166667,-2616,-587)">
                    <path d="M688.4,340.88C678.48,340.88 670.24,339.2 663.68,335.84C657.12,332.48 652.24,328 649.04,322.4C645.84,316.8 644.24,310.72 644.24,304.16C644.24,296.48 646.16,289.84 650,284.24C654,278.64 659.84,274.32 667.52,271.28C675.2,268.08 684.64,266.48 695.84,266.48L726.32,266.48C726.32,260.08 725.44,254.8 723.68,250.64C721.92,246.32 719.2,243.12 715.52,241.04C711.84,238.96 707.12,237.92 701.36,237.92C694.8,237.92 689.2,239.44 684.56,242.48C679.92,245.36 677.04,249.84 675.92,255.92L647.6,255.92C648.56,247.28 651.44,239.92 656.24,233.84C661.04,227.6 667.36,222.8 675.2,219.44C683.2,215.92 691.92,214.16 701.36,214.16C712.72,214.16 722.4,216.16 730.4,220.16C738.4,224 744.48,229.6 748.64,236.96C752.96,244.16 755.12,252.88 755.12,263.12L755.12,338L730.64,338L727.76,318.56C726.16,321.76 724.08,324.72 721.52,327.44C719.12,330.16 716.32,332.56 713.12,334.64C709.92,336.56 706.24,338.08 702.08,339.2C698.08,340.32 693.52,340.88 688.4,340.88ZM694.88,318.08C699.52,318.08 703.6,317.28 707.12,315.68C710.8,313.92 713.92,311.52 716.48,308.48C719.2,305.28 721.28,301.76 722.72,297.92C724.16,294.08 725.12,290 725.6,285.68L725.6,285.2L698.96,285.2C693.36,285.2 688.72,285.92 685.04,287.36C681.36,288.64 678.72,290.56 677.12,293.12C675.52,295.68 674.72,298.64 674.72,302C674.72,305.36 675.52,308.24 677.12,310.64C678.72,313.04 681.04,314.88 684.08,316.16C687.12,317.44 690.72,318.08 694.88,318.08ZM830.773,340.88C821.013,340.88 812.613,338.96 805.573,335.12C798.693,331.12 793.413,325.2 789.733,317.36C786.053,309.36 784.213,299.52 784.213,287.84L784.213,217.04L813.013,217.04L813.013,284.96C813.013,295.36 815.173,303.28 819.493,308.72C823.973,314 830.693,316.64 839.653,316.64C845.413,316.64 850.533,315.28 855.013,312.56C859.653,309.84 863.253,305.92 865.813,300.8C868.533,295.52 869.893,289.12 869.893,281.6L869.893,217.04L898.693,217.04L898.693,338L873.253,338L871.093,317.84C867.413,324.88 862.053,330.48 855.013,334.64C848.133,338.8 840.053,340.88 830.773,340.88ZM983.296,338C975.136,338 968.016,336.72 961.936,334.16C956.016,331.6 951.376,327.36 948.016,321.44C944.656,315.52 942.976,307.52 942.976,297.44L942.976,241.28L922.336,241.28L922.336,217.04L942.976,217.04L946.336,185.12L971.776,185.12L971.776,217.04L1004.66,217.04L1004.66,241.28L971.776,241.28L971.776,297.44C971.776,303.52 973.056,307.76 975.616,310.16C978.336,312.4 982.816,313.52 989.056,313.52L1003.94,313.52L1003.94,338L983.296,338ZM1085.11,340.88C1073.59,340.88 1063.19,338.24 1053.91,332.96C1044.79,327.52 1037.59,320.08 1032.31,310.64C1027.19,301.04 1024.63,290.08 1024.63,277.76C1024.63,265.12 1027.27,254.08 1032.55,244.64C1037.83,235.04 1045.03,227.6 1054.15,222.32C1063.43,216.88 1073.83,214.16 1085.35,214.16C1096.87,214.16 1107.19,216.88 1116.31,222.32C1125.59,227.6 1132.79,234.96 1137.91,244.4C1143.19,253.84 1145.83,264.88 1145.83,277.52C1145.83,290.16 1143.19,301.2 1137.91,310.64C1132.63,320.08 1125.35,327.52 1116.07,332.96C1106.95,338.24 1096.63,340.88 1085.11,340.88ZM1085.11,316.16C1090.87,316.16 1096.07,314.72 1100.71,311.84C1105.51,308.96 1109.35,304.64 1112.23,298.88C1115.11,293.12 1116.55,286 1116.55,277.52C1116.55,269.04 1115.11,262 1112.23,256.4C1109.51,250.64 1105.75,246.32 1100.95,243.44C1096.31,240.56 1091.11,239.12 1085.35,239.12C1079.75,239.12 1074.55,240.56 1069.75,243.44C1064.95,246.32 1061.11,250.64 1058.23,256.4C1055.35,262 1053.91,269.04 1053.91,277.52C1053.91,286 1055.35,293.12 1058.23,298.88C1061.11,304.64 1064.87,308.96 1069.51,311.84C1074.31,314.72 1079.51,316.16 1085.11,316.16ZM1174.02,338L1174.02,217.04L1199.46,217.04L1201.62,237.2C1205.3,230.16 1210.58,224.56 1217.46,220.4C1224.34,216.24 1232.5,214.16 1241.94,214.16C1251.7,214.16 1260.02,216.24 1266.9,220.4C1273.78,224.4 1279.06,230.32 1282.74,238.16C1286.58,246 1288.5,255.76 1288.5,267.44L1288.5,338L1259.7,338L1259.7,270.08C1259.7,260 1257.46,252.24 1252.98,246.8C1248.5,241.36 1241.86,238.64 1233.06,238.64C1227.3,238.64 1222.1,240 1217.46,242.72C1212.98,245.44 1209.38,249.44 1206.66,254.72C1204.1,259.84 1202.82,266.08 1202.82,273.44L1202.82,338L1174.02,338ZM1375.26,340.88C1363.74,340.88 1353.34,338.24 1344.06,332.96C1334.94,327.52 1327.74,320.08 1322.46,310.64C1317.34,301.04 1314.78,290.08 1314.78,277.76C1314.78,265.12 1317.42,254.08 1322.7,244.64C1327.98,235.04 1335.18,227.6 1344.3,222.32C1353.58,216.88 1363.98,214.16 1375.5,214.16C1387.02,214.16 1397.34,216.88 1406.46,222.32C1415.74,227.6 1422.94,234.96 1428.06,244.4C1433.34,253.84 1435.98,264.88 1435.98,277.52C1435.98,290.16 1433.34,301.2 1428.06,310.64C1422.78,320.08 1415.5,327.52 1406.22,332.96C1397.1,338.24 1386.78,340.88 1375.26,340.88ZM1375.26,316.16C1381.02,316.16 1386.22,314.72 1390.86,311.84C1395.66,308.96 1399.5,304.64 1402.38,298.88C1405.26,293.12 1406.7,286 1406.7,277.52C1406.7,269.04 1405.26,262 1402.38,256.4C1399.66,250.64 1395.9,246.32 1391.1,243.44C1386.46,240.56 1381.26,239.12 1375.5,239.12C1369.9,239.12 1364.7,240.56 1359.9,243.44C1355.1,246.32 1351.26,250.64 1348.38,256.4C1345.5,262 1344.06,269.04 1344.06,277.52C1344.06,286 1345.5,293.12 1348.38,298.88C1351.26,304.64 1355.02,308.96 1359.66,311.84C1364.46,314.72 1369.66,316.16 1375.26,316.16ZM1464.17,338L1464.17,217.04L1489.61,217.04L1492.01,233.6C1495.85,227.52 1500.89,222.8 1507.13,219.44C1513.53,215.92 1520.81,214.16 1528.97,214.16C1535.05,214.16 1540.49,214.96 1545.29,216.56C1550.25,218.16 1554.57,220.56 1558.25,223.76C1562.09,226.96 1565.21,230.96 1567.61,235.76C1572.09,229.04 1577.93,223.76 1585.13,219.92C1592.33,216.08 1600.17,214.16 1608.65,214.16C1618.73,214.16 1627.29,216.24 1634.33,220.4C1641.37,224.4 1646.73,230.4 1650.41,238.4C1654.09,246.24 1655.93,255.92 1655.93,267.44L1655.93,338L1627.37,338L1627.37,270.32C1627.37,260.08 1625.29,252.24 1621.13,246.8C1616.97,241.36 1610.81,238.64 1602.65,238.64C1597.05,238.64 1592.09,240 1587.77,242.72C1583.61,245.44 1580.33,249.44 1577.93,254.72C1575.53,259.84 1574.33,266.16 1574.33,273.68L1574.33,338L1545.77,338L1545.77,270.32C1545.77,260.08 1543.69,252.24 1539.53,246.8C1535.37,241.36 1529.13,238.64 1520.81,238.64C1515.53,238.64 1510.73,240 1506.41,242.72C1502.25,245.44 1498.97,249.44 1496.57,254.72C1494.17,259.84 1492.97,266.16 1492.97,273.68L1492.97,338L1464.17,338ZM1726.68,340.88C1716.76,340.88 1708.52,339.2 1701.96,335.84C1695.4,332.48 1690.52,328 1687.32,322.4C1684.12,316.8 1682.52,310.72 1682.52,304.16C1682.52,296.48 1684.44,289.84 1688.28,284.24C1692.28,278.64 1698.12,274.32 1705.8,271.28C1713.48,268.08 1722.92,266.48 1734.12,266.48L1764.6,266.48C1764.6,260.08 1763.72,254.8 1761.96,250.64C1760.2,246.32 1757.48,243.12 1753.8,241.04C1750.12,238.96 1745.4,237.92 1739.64,237.92C1733.08,237.92 1727.48,239.44 1722.84,242.48C1718.2,245.36 1715.32,249.84 1714.2,255.92L1685.88,255.92C1686.84,247.28 1689.72,239.92 1694.52,233.84C1699.32,227.6 1705.64,222.8 1713.48,219.44C1721.48,215.92 1730.2,214.16 1739.64,214.16C1751,214.16 1760.68,216.16 1768.68,220.16C1776.68,224 1782.76,229.6 1786.92,236.96C1791.24,244.16 1793.4,252.88 1793.4,263.12L1793.4,338L1768.92,338L1766.04,318.56C1764.44,321.76 1762.36,324.72 1759.8,327.44C1757.4,330.16 1754.6,332.56 1751.4,334.64C1748.2,336.56 1744.52,338.08 1740.36,339.2C1736.36,340.32 1731.8,340.88 1726.68,340.88ZM1733.16,318.08C1737.8,318.08 1741.88,317.28 1745.4,315.68C1749.08,313.92 1752.2,311.52 1754.76,308.48C1757.48,305.28 1759.56,301.76 1761,297.92C1762.44,294.08 1763.4,290 1763.88,285.68L1763.88,285.2L1737.24,285.2C1731.64,285.2 1727,285.92 1723.32,287.36C1719.64,288.64 1717,290.56 1715.4,293.12C1713.8,295.68 1713,298.64 1713,302C1713,305.36 1713.8,308.24 1715.4,310.64C1717,313.04 1719.32,314.88 1722.36,316.16C1725.4,317.44 1729,318.08 1733.16,318.08Z" style="fill:white;fill-rule:nonzero;"/>
                </g>
            </g>
        </g>
    </g>
</svg>
