<?xml version="1.0" encoding="UTF-8" standalone="no"?>
<!DOCTYPE svg PUBLIC "-//W3C//DTD SVG 1.1//EN" "http://www.w3.org/Graphics/SVG/1.1/DTD/svg11.dtd">
<svg width="100%" height="100%" viewBox="0 0 331 53" version="1.1" xmlns="http://www.w3.org/2000/svg" xmlns:xlink="http://www.w3.org/1999/xlink" xml:space="preserve" xmlns:serif="http://www.serif.com/" style="fill-rule:evenodd;clip-rule:evenodd;stroke-linecap:round;stroke-linejoin:round;stroke-miterlimit:1.5;">
    <g transform="matrix(1,0,0,1,-91.641098,-1350.828532)">
        <g id="Quarita" transform="matrix(1,0,0,1,-447,3)">
            <path id="Stomach" d="M547,1397C547,1397 547.029,1390.578 550,1385C552.055,1383.076 555.462,1378.954 561.569,1379.065C569.676,1379.213 571.116,1381.937 574,1385C577.07,1388.26 579,1396 579,1396C579,1396 571.182,1397.763 564,1398C556.818,1398.237 547,1397 547,1397Z" style="fill:white;"/>
            <g id="Outline" transform="matrix(1,0,0,0.976445,0,32.929416)">
                <path d="M583.327,1376.351C583.939,1378.162 586.038,1380.149 586.697,1383.452C587.506,1387.513 586.786,1390.374 585.363,1393.033C584.974,1393.759 584.838,1394.001 582.554,1395.808C582.484,1395.863 580.529,1396.788 578.248,1397.314C575.51,1397.945 575.494,1397.841 571.205,1398.549C569.545,1398.823 569.54,1398.865 559,1398.854C556.373,1398.852 550.476,1399.025 544.841,1396.94C543.693,1396.515 543.486,1396.408 541.632,1394.867C540.483,1393.911 539.223,1392.024 538.85,1389.93C538.559,1388.301 538.413,1384.247 539.522,1381.995C540.122,1380.778 540.565,1380.31 541.238,1378.828C541.575,1378.084 542.093,1377.341 542.172,1375.886C542.226,1374.879 539.896,1374.384 540.9,1369.632C541.475,1366.912 543.185,1366.341 543.353,1365.286C543.557,1364.001 543.112,1361.608 543.804,1360.163C544.459,1358.796 545.618,1355.506 550.769,1355.026C555.975,1354.542 557.692,1358.154 558.992,1358.657C562.154,1358.776 565.897,1359.38 567.523,1358.162C569.041,1357.025 569.462,1355.023 573.372,1354.721C574.237,1354.654 576.383,1354.444 579.278,1356.76C582.413,1359.269 581.358,1361.594 581.854,1364.801C581.989,1365.671 582.233,1366.018 582.348,1366.599C582.425,1366.989 584.134,1368.028 584.507,1369.258C584.543,1369.378 585.788,1372.722 584.433,1375.114C584.15,1375.615 583.854,1375.883 583.327,1376.351ZM559.006,1360.364L559.006,1360.366C557.192,1360.219 556.687,1358.352 554.204,1357.176C552.395,1356.32 548.038,1356.399 546.269,1359.096C545.217,1360.7 545.13,1361.511 545.106,1361.741C544.873,1363.91 545.59,1365.493 544.243,1367.134C543.553,1367.974 542.499,1368.697 542.323,1371.44C542.143,1374.252 544.054,1373.891 543.816,1376.244C543.739,1377.004 543.783,1377.458 542.563,1379.962C541.407,1382.335 540.51,1382.526 540.33,1386.342C540.174,1389.626 540.774,1391.141 541.779,1392.557C542.303,1393.296 542.552,1393.39 543.692,1394.377C544.039,1394.678 544.921,1395.442 549.04,1396.376C551.724,1396.985 552.984,1397.201 565.868,1397.147C570.341,1397.128 570.326,1396.928 572.862,1396.54C575.276,1396.171 575.282,1396.226 577.668,1395.697C579.099,1395.379 579.907,1395.073 581.24,1394.543C581.831,1394.307 581.794,1394.244 582.294,1393.843C583.371,1392.978 583.681,1392.942 584.659,1390.56C585.833,1387.701 585.273,1384.665 584.918,1383.133C584.38,1380.812 581.276,1377.479 581.675,1375.903C581.959,1374.783 583.29,1374.986 583.405,1372.581C583.447,1371.717 583.131,1369.889 582.624,1369.315C581.822,1368.406 580.979,1368.075 580.717,1366.915C579.875,1364.401 580.151,1364.273 579.972,1361.481C579.867,1359.822 579.455,1358.828 577.436,1357.52C576.922,1357.186 575.152,1355.839 572.122,1356.658C569.975,1357.239 569.971,1358.728 568.044,1359.844C565.891,1361.092 561.895,1360.481 559.006,1360.364Z" style="fill:white;"/>
            </g>
            <g id="Mouth" transform="matrix(1,0,0,1,0.596305,0.658931)">
                <path d="M547.177,1372.807C547.032,1372.88 546.854,1372.933 546.827,1373.075C546.688,1372.87 546.512,1372.692 546.373,1372.487C546.352,1372.457 546.44,1372.303 546.458,1372.276C547.103,1371.326 559.454,1366.009 573.905,1374.365C574.022,1374.433 574.185,1374.453 574.253,1374.569C574.438,1374.882 574.247,1374.944 574.43,1375.255C574.195,1375.249 573.981,1375.436 573.746,1375.43C573.713,1375.43 563.282,1368.472 550.99,1371.488C548.429,1372.116 547.523,1372.702 547.256,1372.875L547.177,1372.807ZM546.973,1372.631L546.92,1372.585C546.913,1372.619 546.936,1372.631 546.973,1372.631Z" style="fill:white;"/>
            </g>
            <g id="Nose" transform="matrix(1,0,0,1,0.596305,0.658931)">
                <g transform="matrix(1,0,0,1.341932,-0.030587,-468.089707)">
                    <circle cx="554.5" cy="1367.5" r="0.5" style="fill:white;"/>
                </g>
                <g transform="matrix(1,0,0,1.341932,11.956349,-467.05858)">
                    <circle cx="554.5" cy="1367.5" r="0.5" style="fill:white;"/>
                </g>
            </g>
            <g id="Left-Eye" serif:id="Left Eye" transform="matrix(1.066775,0,0,1.066775,-37.089756,-90.521565)">
                <g transform="matrix(1,0,0,1,0.168054,0.185699)">
                    <path d="M551.945,1364.835C553.4,1364.307 554.105,1363.323 554.562,1362.344C555.019,1361.365 554.385,1359.824 553.726,1359.17C553.068,1358.517 550.706,1358.6 549.622,1358.765C548.087,1359.409 547.225,1360.214 547.136,1360.57C546.599,1361.02 546.159,1363.483 547.012,1364.936C547.865,1366.389 550.491,1365.363 551.945,1364.835Z" style="fill:white;"/>
                </g>
                <g transform="matrix(1,0,0,1,-0.090777,-0.436982)">
                    <path d="M548.351,1363.662C548.351,1363.662 549.476,1362.34 552.547,1362.494" style="fill:none;stroke:black;stroke-width:0.94px;"/>
                </g>
            </g>
            <g id="Right-Eye" serif:id="Right Eye" transform="matrix(1.099088,0,0,1.099088,-56.395709,-135.020805)">
                <path d="M570.03,1362.564C569.971,1363.271 570.127,1364.071 570.546,1364.768C570.964,1365.465 572.537,1366.857 573.292,1366.992C574.046,1367.126 575.184,1367.159 575.971,1367.029C576.757,1366.899 577.831,1365.716 578.207,1364.836C578.582,1363.956 578.555,1361.961 578.184,1361.075C577.813,1360.19 577.043,1359.593 576.325,1359.155C575.607,1358.716 574.158,1358.63 573.284,1358.729C572.41,1358.828 571.865,1359.155 571.25,1359.851C570.634,1360.548 570.088,1361.857 570.03,1362.564Z" style="fill:white;"/>
                <path d="M571.526,1362.327C571.526,1362.327 575.387,1362.362 576.666,1363.679" style="fill:none;stroke:black;stroke-width:0.91px;"/>
            </g>
        </g>
        <g transform="matrix(0.054329,0,0,0.054329,288.86572,1376.879221)">
            <g transform="matrix(1,0,0,1,-2461,-479.5)">
                <clipPath id="_clip1">
                    <rect x="0" y="0" width="4922" height="959"/>
                </clipPath>
                <g clip-path="url(#_clip1)">
                    <g transform="matrix(4.166667,0,0,4.166667,-2616,-587)">
                        <path d="M452.588,387.25L378.748,387.25L256.5,180L134.252,387.25L59.412,387.25L256,52L452.588,387.25Z" style="fill:white;fill-rule:nonzero;"/>
                    </g>
                    <g transform="matrix(4.166667,0,0,4.166667,-2616,-587)">
                        <path d="M688.4,340.88C678.48,340.88 670.24,339.2 663.68,335.84C657.12,332.48 652.24,328 649.04,322.4C645.84,316.8 644.24,310.72 644.24,304.16C644.24,296.48 646.16,289.84 650,284.24C654,278.64 659.84,274.32 667.52,271.28C675.2,268.08 684.64,266.48 695.84,266.48L726.32,266.48C726.32,260.08 725.44,254.8 723.68,250.64C721.92,246.32 719.2,243.12 715.52,241.04C711.84,238.96 707.12,237.92 701.36,237.92C694.8,237.92 689.2,239.44 684.56,242.48C679.92,245.36 677.04,249.84 675.92,255.92L647.6,255.92C648.56,247.28 651.44,239.92 656.24,233.84C661.04,227.6 667.36,222.8 675.2,219.44C683.2,215.92 691.92,214.16 701.36,214.16C712.72,214.16 722.4,216.16 730.4,220.16C738.4,224 744.48,229.6 748.64,236.96C752.96,244.16 755.12,252.88 755.12,263.12L755.12,338L730.64,338L727.76,318.56C726.16,321.76 724.08,324.72 721.52,327.44C719.12,330.16 716.32,332.56 713.12,334.64C709.92,336.56 706.24,338.08 702.08,339.2C698.08,340.32 693.52,340.88 688.4,340.88ZM694.88,318.08C699.52,318.08 703.6,317.28 707.12,315.68C710.8,313.92 713.92,311.52 716.48,308.48C719.2,305.28 721.28,301.76 722.72,297.92C724.16,294.08 725.12,290 725.6,285.68L725.6,285.2L698.96,285.2C693.36,285.2 688.72,285.92 685.04,287.36C681.36,288.64 678.72,290.56 677.12,293.12C675.52,295.68 674.72,298.64 674.72,302C674.72,305.36 675.52,308.24 677.12,310.64C678.72,313.04 681.04,314.88 684.08,316.16C687.12,317.44 690.72,318.08 694.88,318.08ZM830.773,340.88C821.013,340.88 812.613,338.96 805.573,335.12C798.693,331.12 793.413,325.2 789.733,317.36C786.053,309.36 784.213,299.52 784.213,287.84L784.213,217.04L813.013,217.04L813.013,284.96C813.013,295.36 815.173,303.28 819.493,308.72C823.973,314 830.693,316.64 839.653,316.64C845.413,316.64 850.533,315.28 855.013,312.56C859.653,309.84 863.253,305.92 865.813,300.8C868.533,295.52 869.893,289.12 869.893,281.6L869.893,217.04L898.693,217.04L898.693,338L873.253,338L871.093,317.84C867.413,324.88 862.053,330.48 855.013,334.64C848.133,338.8 840.053,340.88 830.773,340.88ZM983.296,338C975.136,338 968.016,336.72 961.936,334.16C956.016,331.6 951.376,327.36 948.016,321.44C944.656,315.52 942.976,307.52 942.976,297.44L942.976,241.28L922.336,241.28L922.336,217.04L942.976,217.04L946.336,185.12L971.776,185.12L971.776,217.04L1004.66,217.04L1004.66,241.28L971.776,241.28L971.776,297.44C971.776,303.52 973.056,307.76 975.616,310.16C978.336,312.4 982.816,313.52 989.056,313.52L1003.94,313.52L1003.94,338L983.296,338ZM1085.11,340.88C1073.59,340.88 1063.19,338.24 1053.91,332.96C1044.79,327.52 1037.59,320.08 1032.31,310.64C1027.19,301.04 1024.63,290.08 1024.63,277.76C1024.63,265.12 1027.27,254.08 1032.55,244.64C1037.83,235.04 1045.03,227.6 1054.15,222.32C1063.43,216.88 1073.83,214.16 1085.35,214.16C1096.87,214.16 1107.19,216.88 1116.31,222.32C1125.59,227.6 1132.79,234.96 1137.91,244.4C1143.19,253.84 1145.83,264.88 1145.83,277.52C1145.83,290.16 1143.19,301.2 1137.91,310.64C1132.63,320.08 1125.35,327.52 1116.07,332.96C1106.95,338.24 1096.63,340.88 1085.11,340.88ZM1085.11,316.16C1090.87,316.16 1096.07,314.72 1100.71,311.84C1105.51,308.96 1109.35,304.64 1112.23,298.88C1115.11,293.12 1116.55,286 1116.55,277.52C1116.55,269.04 1115.11,262 1112.23,256.4C1109.51,250.64 1105.75,246.32 1100.95,243.44C1096.31,240.56 1091.11,239.12 1085.35,239.12C1079.75,239.12 1074.55,240.56 1069.75,243.44C1064.95,246.32 1061.11,250.64 1058.23,256.4C1055.35,262 1053.91,269.04 1053.91,277.52C1053.91,286 1055.35,293.12 1058.23,298.88C1061.11,304.64 1064.87,308.96 1069.51,311.84C1074.31,314.72 1079.51,316.16 1085.11,316.16ZM1174.02,338L1174.02,217.04L1199.46,217.04L1201.62,237.2C1205.3,230.16 1210.58,224.56 1217.46,220.4C1224.34,216.24 1232.5,214.16 1241.94,214.16C1251.7,214.16 1260.02,216.24 1266.9,220.4C1273.78,224.4 1279.06,230.32 1282.74,238.16C1286.58,246 1288.5,255.76 1288.5,267.44L1288.5,338L1259.7,338L1259.7,270.08C1259.7,260 1257.46,252.24 1252.98,246.8C1248.5,241.36 1241.86,238.64 1233.06,238.64C1227.3,238.64 1222.1,240 1217.46,242.72C1212.98,245.44 1209.38,249.44 1206.66,254.72C1204.1,259.84 1202.82,266.08 1202.82,273.44L1202.82,338L1174.02,338ZM1375.26,340.88C1363.74,340.88 1353.34,338.24 1344.06,332.96C1334.94,327.52 1327.74,320.08 1322.46,310.64C1317.34,301.04 1314.78,290.08 1314.78,277.76C1314.78,265.12 1317.42,254.08 1322.7,244.64C1327.98,235.04 1335.18,227.6 1344.3,222.32C1353.58,216.88 1363.98,214.16 1375.5,214.16C1387.02,214.16 1397.34,216.88 1406.46,222.32C1415.74,227.6 1422.94,234.96 1428.06,244.4C1433.34,253.84 1435.98,264.88 1435.98,277.52C1435.98,290.16 1433.34,301.2 1428.06,310.64C1422.78,320.08 1415.5,327.52 1406.22,332.96C1397.1,338.24 1386.78,340.88 1375.26,340.88ZM1375.26,316.16C1381.02,316.16 1386.22,314.72 1390.86,311.84C1395.66,308.96 1399.5,304.64 1402.38,298.88C1405.26,293.12 1406.7,286 1406.7,277.52C1406.7,269.04 1405.26,262 1402.38,256.4C1399.66,250.64 1395.9,246.32 1391.1,243.44C1386.46,240.56 1381.26,239.12 1375.5,239.12C1369.9,239.12 1364.7,240.56 1359.9,243.44C1355.1,246.32 1351.26,250.64 1348.38,256.4C1345.5,262 1344.06,269.04 1344.06,277.52C1344.06,286 1345.5,293.12 1348.38,298.88C1351.26,304.64 1355.02,308.96 1359.66,311.84C1364.46,314.72 1369.66,316.16 1375.26,316.16ZM1464.17,338L1464.17,217.04L1489.61,217.04L1492.01,233.6C1495.85,227.52 1500.89,222.8 1507.13,219.44C1513.53,215.92 1520.81,214.16 1528.97,214.16C1535.05,214.16 1540.49,214.96 1545.29,216.56C1550.25,218.16 1554.57,220.56 1558.25,223.76C1562.09,226.96 1565.21,230.96 1567.61,235.76C1572.09,229.04 1577.93,223.76 1585.13,219.92C1592.33,216.08 1600.17,214.16 1608.65,214.16C1618.73,214.16 1627.29,216.24 1634.33,220.4C1641.37,224.4 1646.73,230.4 1650.41,238.4C1654.09,246.24 1655.93,255.92 1655.93,267.44L1655.93,338L1627.37,338L1627.37,270.32C1627.37,260.08 1625.29,252.24 1621.13,246.8C1616.97,241.36 1610.81,238.64 1602.65,238.64C1597.05,238.64 1592.09,240 1587.77,242.72C1583.61,245.44 1580.33,249.44 1577.93,254.72C1575.53,259.84 1574.33,266.16 1574.33,273.68L1574.33,338L1545.77,338L1545.77,270.32C1545.77,260.08 1543.69,252.24 1539.53,246.8C1535.37,241.36 1529.13,238.64 1520.81,238.64C1515.53,238.64 1510.73,240 1506.41,242.72C1502.25,245.44 1498.97,249.44 1496.57,254.72C1494.17,259.84 1492.97,266.16 1492.97,273.68L1492.97,338L1464.17,338ZM1726.68,340.88C1716.76,340.88 1708.52,339.2 1701.96,335.84C1695.4,332.48 1690.52,328 1687.32,322.4C1684.12,316.8 1682.52,310.72 1682.52,304.16C1682.52,296.48 1684.44,289.84 1688.28,284.24C1692.28,278.64 1698.12,274.32 1705.8,271.28C1713.48,268.08 1722.92,266.48 1734.12,266.48L1764.6,266.48C1764.6,260.08 1763.72,254.8 1761.96,250.64C1760.2,246.32 1757.48,243.12 1753.8,241.04C1750.12,238.96 1745.4,237.92 1739.64,237.92C1733.08,237.92 1727.48,239.44 1722.84,242.48C1718.2,245.36 1715.32,249.84 1714.2,255.92L1685.88,255.92C1686.84,247.28 1689.72,239.92 1694.52,233.84C1699.32,227.6 1705.64,222.8 1713.48,219.44C1721.48,215.92 1730.2,214.16 1739.64,214.16C1751,214.16 1760.68,216.16 1768.68,220.16C1776.68,224 1782.76,229.6 1786.92,236.96C1791.24,244.16 1793.4,252.88 1793.4,263.12L1793.4,338L1768.92,338L1766.04,318.56C1764.44,321.76 1762.36,324.72 1759.8,327.44C1757.4,330.16 1754.6,332.56 1751.4,334.64C1748.2,336.56 1744.52,338.08 1740.36,339.2C1736.36,340.32 1731.8,340.88 1726.68,340.88ZM1733.16,318.08C1737.8,318.08 1741.88,317.28 1745.4,315.68C1749.08,313.92 1752.2,311.52 1754.76,308.48C1757.48,305.28 1759.56,301.76 1761,297.92C1762.44,294.08 1763.4,290 1763.88,285.68L1763.88,285.2L1737.24,285.2C1731.64,285.2 1727,285.92 1723.32,287.36C1719.64,288.64 1717,290.56 1715.4,293.12C1713.8,295.68 1713,298.64 1713,302C1713,305.36 1713.8,308.24 1715.4,310.64C1717,313.04 1719.32,314.88 1722.36,316.16C1725.4,317.44 1729,318.08 1733.16,318.08Z" style="fill:white;fill-rule:nonzero;"/>
                    </g>
                </g>
            </g>
        </g>
    </g>
</svg>
